<svg width="451" height="56" viewBox="0 0 451 56" fill="none" xmlns="http://www.w3.org/2000/svg">
<rect width="451" height="56" rx="4" fill="white"/>
<path d="M21.036 33V23.2H27.098V24.166H22.212V27.582H26.678V28.534H22.212V32.034H27.098V33H21.036ZM28.8683 33V26.056H29.9323L30.0023 27.302C30.2263 26.8633 30.5483 26.518 30.9683 26.266C31.3883 26.014 31.8643 25.888 32.3963 25.888C33.2177 25.888 33.871 26.14 34.3563 26.644C34.851 27.1387 35.0983 27.904 35.0983 28.94V33H33.9223V29.066C33.9223 27.6193 33.325 26.896 32.1303 26.896C31.533 26.896 31.0337 27.1153 30.6323 27.554C30.2403 27.9833 30.0443 28.5993 30.0443 29.402V33H28.8683ZM39.6241 33C38.9894 33 38.4901 32.846 38.1261 32.538C37.7621 32.23 37.5801 31.6747 37.5801 30.872V27.05H36.3761V26.056H37.5801L37.7341 24.39H38.7561V26.056H40.8001V27.05H38.7561V30.872C38.7561 31.3107 38.8447 31.6093 39.0221 31.768C39.1994 31.9173 39.5121 31.992 39.9601 31.992H40.6881V33H39.6241ZM45.2247 33.168C44.5621 33.168 43.9741 33.0187 43.4607 32.72C42.9474 32.412 42.5414 31.9873 42.2427 31.446C41.9534 30.9047 41.8087 30.2653 41.8087 29.528C41.8087 28.8 41.9534 28.1653 42.2427 27.624C42.5321 27.0733 42.9334 26.6487 43.4467 26.35C43.9694 26.042 44.5714 25.888 45.2527 25.888C45.9247 25.888 46.5034 26.042 46.9887 26.35C47.4834 26.6487 47.8614 27.0453 48.1227 27.54C48.3841 28.0347 48.5147 28.5667 48.5147 29.136C48.5147 29.2387 48.5101 29.3413 48.5007 29.444C48.5007 29.5467 48.5007 29.6633 48.5007 29.794H42.9707C42.9987 30.326 43.1201 30.7693 43.3347 31.124C43.5587 31.4693 43.8341 31.7307 44.1607 31.908C44.4967 32.0853 44.8514 32.174 45.2247 32.174C45.7101 32.174 46.1161 32.062 46.4427 31.838C46.7694 31.614 47.0074 31.3107 47.1567 30.928H48.3187C48.1321 31.572 47.7727 32.1087 47.2407 32.538C46.7181 32.958 46.0461 33.168 45.2247 33.168ZM45.2247 26.882C44.6647 26.882 44.1654 27.0547 43.7267 27.4C43.2974 27.736 43.0501 28.2307 42.9847 28.884H47.3527C47.3247 28.2587 47.1101 27.7687 46.7087 27.414C46.3074 27.0593 45.8127 26.882 45.2247 26.882ZM50.0734 33V26.056H51.1374L51.2354 27.386C51.4501 26.9287 51.7768 26.5647 52.2154 26.294C52.6541 26.0233 53.1954 25.888 53.8394 25.888V27.12H53.5174C53.1068 27.12 52.7288 27.1947 52.3834 27.344C52.0381 27.484 51.7628 27.7267 51.5574 28.072C51.3521 28.4173 51.2494 28.8933 51.2494 29.5V33H50.0734ZM58.8644 33V26.056H59.9284L60.0124 27.064C60.2364 26.6907 60.5351 26.4013 60.9084 26.196C61.2818 25.9907 61.7018 25.888 62.1684 25.888C62.7191 25.888 63.1904 26 63.5824 26.224C63.9838 26.448 64.2918 26.7887 64.5064 27.246C64.7491 26.826 65.0804 26.4947 65.5004 26.252C65.9298 26.0093 66.3918 25.888 66.8864 25.888C67.7171 25.888 68.3798 26.14 68.8744 26.644C69.3691 27.1387 69.6164 27.904 69.6164 28.94V33H68.4544V29.066C68.4544 28.3473 68.3098 27.806 68.0204 27.442C67.7311 27.078 67.3158 26.896 66.7744 26.896C66.2144 26.896 65.7478 27.1153 65.3744 27.554C65.0104 27.9833 64.8284 28.5993 64.8284 29.402V33H63.6524V29.066C63.6524 28.3473 63.5078 27.806 63.2184 27.442C62.9291 27.078 62.5138 26.896 61.9724 26.896C61.4218 26.896 60.9598 27.1153 60.5864 27.554C60.2224 27.9833 60.0404 28.5993 60.0404 29.402V33H58.8644ZM73.6979 33.168C73.1192 33.168 72.6385 33.07 72.2559 32.874C71.8732 32.678 71.5885 32.4167 71.4019 32.09C71.2152 31.7633 71.1219 31.4087 71.1219 31.026C71.1219 30.3167 71.3925 29.7707 71.9339 29.388C72.4752 29.0053 73.2125 28.814 74.1459 28.814H76.0219V28.73C76.0219 28.1233 75.8632 27.666 75.5459 27.358C75.2285 27.0407 74.8039 26.882 74.2719 26.882C73.8145 26.882 73.4179 26.9987 73.0819 27.232C72.7552 27.456 72.5499 27.7873 72.4659 28.226H71.2619C71.3085 27.722 71.4765 27.2973 71.7659 26.952C72.0645 26.6067 72.4332 26.3453 72.8719 26.168C73.3105 25.9813 73.7772 25.888 74.2719 25.888C75.2425 25.888 75.9705 26.1493 76.4559 26.672C76.9505 27.1853 77.1979 27.8713 77.1979 28.73V33H76.1479L76.0779 31.754C75.8819 32.146 75.5925 32.482 75.2099 32.762C74.8365 33.0327 74.3325 33.168 73.6979 33.168ZM73.8799 32.174C74.3279 32.174 74.7105 32.0573 75.0279 31.824C75.3545 31.5907 75.6019 31.2873 75.7699 30.914C75.9379 30.5407 76.0219 30.1487 76.0219 29.738V29.724H74.2439C73.5532 29.724 73.0632 29.8453 72.7739 30.088C72.4939 30.3213 72.3539 30.6153 72.3539 30.97C72.3539 31.334 72.4845 31.628 72.7459 31.852C73.0165 32.0667 73.3945 32.174 73.8799 32.174ZM79.6761 24.516C79.4428 24.516 79.2468 24.4413 79.0881 24.292C78.9388 24.1333 78.8641 23.9373 78.8641 23.704C78.8641 23.48 78.9388 23.2933 79.0881 23.144C79.2468 22.9947 79.4428 22.92 79.6761 22.92C79.9001 22.92 80.0914 22.9947 80.2501 23.144C80.4088 23.2933 80.4881 23.48 80.4881 23.704C80.4881 23.9373 80.4088 24.1333 80.2501 24.292C80.0914 24.4413 79.9001 24.516 79.6761 24.516ZM79.0881 33V26.056H80.2641V33H79.0881ZM82.3117 33V22.92H83.4877V33H82.3117ZM85.8212 33.07C85.5879 33.07 85.3919 32.9953 85.2332 32.846C85.0839 32.6873 85.0092 32.496 85.0092 32.272C85.0092 32.048 85.0839 31.8613 85.2332 31.712C85.3919 31.5533 85.5879 31.474 85.8212 31.474C86.0452 31.474 86.2319 31.5533 86.3812 31.712C86.5399 31.8613 86.6192 32.048 86.6192 32.272C86.6192 32.496 86.5399 32.6873 86.3812 32.846C86.2319 32.9953 86.0452 33.07 85.8212 33.07ZM88.5556 33.07C88.3223 33.07 88.1263 32.9953 87.9676 32.846C87.8183 32.6873 87.7436 32.496 87.7436 32.272C87.7436 32.048 87.8183 31.8613 87.9676 31.712C88.1263 31.5533 88.3223 31.474 88.5556 31.474C88.7796 31.474 88.9663 31.5533 89.1156 31.712C89.2743 31.8613 89.3536 32.048 89.3536 32.272C89.3536 32.496 89.2743 32.6873 89.1156 32.846C88.9663 32.9953 88.7796 33.07 88.5556 33.07ZM91.29 33.07C91.0566 33.07 90.8606 32.9953 90.702 32.846C90.5526 32.6873 90.478 32.496 90.478 32.272C90.478 32.048 90.5526 31.8613 90.702 31.712C90.8606 31.5533 91.0566 31.474 91.29 31.474C91.514 31.474 91.7006 31.5533 91.85 31.712C92.0086 31.8613 92.088 32.048 92.088 32.272C92.088 32.496 92.0086 32.6873 91.85 32.846C91.7006 32.9953 91.514 33.07 91.29 33.07Z" fill="#5A5A5A"/>
<rect x="345" y="8" width="98" height="40" rx="4" fill="#066F14"/>
<path d="M365.158 33.168C364.439 33.168 363.814 33.0373 363.282 32.776C362.75 32.5147 362.339 32.1507 362.05 31.684C361.761 31.2173 361.616 30.676 361.616 30.06H362.848C362.848 30.4427 362.937 30.7973 363.114 31.124C363.291 31.4413 363.548 31.698 363.884 31.894C364.229 32.0807 364.654 32.174 365.158 32.174C365.821 32.174 366.334 32.0153 366.698 31.698C367.062 31.3807 367.244 30.984 367.244 30.508C367.244 30.116 367.16 29.8033 366.992 29.57C366.824 29.3273 366.595 29.1313 366.306 28.982C366.026 28.8327 365.699 28.702 365.326 28.59C364.962 28.478 364.579 28.352 364.178 28.212C363.422 27.9507 362.862 27.6287 362.498 27.246C362.134 26.854 361.952 26.3453 361.952 25.72C361.943 25.1973 362.064 24.7353 362.316 24.334C362.568 23.9233 362.923 23.606 363.38 23.382C363.847 23.1487 364.397 23.032 365.032 23.032C365.657 23.032 366.199 23.1487 366.656 23.382C367.123 23.6153 367.482 23.9373 367.734 24.348C367.995 24.7587 368.131 25.2253 368.14 25.748H366.908C366.908 25.4773 366.838 25.2113 366.698 24.95C366.558 24.6793 366.343 24.46 366.054 24.292C365.774 24.124 365.419 24.04 364.99 24.04C364.458 24.0307 364.019 24.166 363.674 24.446C363.338 24.726 363.17 25.1133 363.17 25.608C363.17 26.028 363.287 26.35 363.52 26.574C363.763 26.798 364.099 26.9847 364.528 27.134C364.957 27.274 365.452 27.4373 366.012 27.624C366.479 27.792 366.899 27.988 367.272 28.212C367.645 28.436 367.935 28.7253 368.14 29.08C368.355 29.4347 368.462 29.8873 368.462 30.438C368.462 30.9047 368.341 31.348 368.098 31.768C367.855 32.1787 367.487 32.5147 366.992 32.776C366.507 33.0373 365.895 33.168 365.158 33.168ZM372.594 33.168C371.772 33.168 371.119 32.9207 370.634 32.426C370.148 31.922 369.906 31.152 369.906 30.116V26.056H371.082V29.99C371.082 31.4367 371.674 32.16 372.86 32.16C373.466 32.16 373.966 31.9453 374.358 31.516C374.759 31.0773 374.96 30.4567 374.96 29.654V26.056H376.136V33H375.072L374.988 31.754C374.773 32.1927 374.451 32.538 374.022 32.79C373.602 33.042 373.126 33.168 372.594 33.168ZM381.781 33.168C381.212 33.168 380.703 33.0513 380.255 32.818C379.817 32.5847 379.481 32.258 379.247 31.838L379.135 33H378.071V22.92H379.247V27.204C379.471 26.868 379.789 26.5647 380.199 26.294C380.619 26.0233 381.151 25.888 381.795 25.888C382.486 25.888 383.088 26.0467 383.601 26.364C384.115 26.6813 384.511 27.1153 384.791 27.666C385.081 28.2167 385.225 28.842 385.225 29.542C385.225 30.242 385.081 30.8673 384.791 31.418C384.511 31.9593 384.11 32.3887 383.587 32.706C383.074 33.014 382.472 33.168 381.781 33.168ZM381.655 32.146C382.122 32.146 382.533 32.0387 382.887 31.824C383.242 31.6 383.522 31.292 383.727 30.9C383.933 30.508 384.035 30.0507 384.035 29.528C384.035 29.0053 383.933 28.548 383.727 28.156C383.522 27.764 383.242 27.4607 382.887 27.246C382.533 27.022 382.122 26.91 381.655 26.91C381.189 26.91 380.778 27.022 380.423 27.246C380.069 27.4607 379.789 27.764 379.583 28.156C379.378 28.548 379.275 29.0053 379.275 29.528C379.275 30.0507 379.378 30.508 379.583 30.9C379.789 31.292 380.069 31.6 380.423 31.824C380.778 32.0387 381.189 32.146 381.655 32.146ZM389.522 33.168C388.692 33.168 388.001 32.958 387.45 32.538C386.9 32.118 386.578 31.5487 386.484 30.83H387.688C387.763 31.194 387.954 31.5113 388.262 31.782C388.58 32.0433 389.004 32.174 389.536 32.174C390.031 32.174 390.395 32.0713 390.628 31.866C390.862 31.6513 390.978 31.3993 390.978 31.11C390.978 30.69 390.824 30.41 390.516 30.27C390.218 30.13 389.793 30.004 389.242 29.892C388.869 29.8173 388.496 29.71 388.122 29.57C387.749 29.43 387.436 29.234 387.184 28.982C386.932 28.7207 386.806 28.38 386.806 27.96C386.806 27.3533 387.03 26.8587 387.478 26.476C387.936 26.084 388.552 25.888 389.326 25.888C390.064 25.888 390.666 26.0747 391.132 26.448C391.608 26.812 391.884 27.3347 391.958 28.016H390.796C390.75 27.6613 390.596 27.386 390.334 27.19C390.082 26.9847 389.742 26.882 389.312 26.882C388.892 26.882 388.566 26.9707 388.332 27.148C388.108 27.3253 387.996 27.5587 387.996 27.848C387.996 28.128 388.141 28.3473 388.43 28.506C388.729 28.6647 389.13 28.8 389.634 28.912C390.064 29.0053 390.47 29.122 390.852 29.262C391.244 29.3927 391.562 29.5933 391.804 29.864C392.056 30.1253 392.182 30.508 392.182 31.012C392.192 31.6373 391.954 32.1553 391.468 32.566C390.992 32.9673 390.344 33.168 389.522 33.168ZM397.054 33.168C396.392 33.168 395.794 33.0187 395.262 32.72C394.74 32.412 394.324 31.9873 394.016 31.446C393.718 30.8953 393.568 30.256 393.568 29.528C393.568 28.8 393.718 28.1653 394.016 27.624C394.324 27.0733 394.74 26.6487 395.262 26.35C395.794 26.042 396.392 25.888 397.054 25.888C397.876 25.888 398.566 26.1027 399.126 26.532C399.696 26.9613 400.055 27.5353 400.204 28.254H399C398.907 27.8247 398.678 27.4933 398.314 27.26C397.95 27.0173 397.526 26.896 397.04 26.896C396.648 26.896 396.28 26.994 395.934 27.19C395.589 27.386 395.309 27.68 395.094 28.072C394.88 28.464 394.772 28.9493 394.772 29.528C394.772 30.1067 394.88 30.592 395.094 30.984C395.309 31.376 395.589 31.6747 395.934 31.88C396.28 32.076 396.648 32.174 397.04 32.174C397.526 32.174 397.95 32.0573 398.314 31.824C398.678 31.5813 398.907 31.2407 399 30.802H400.204C400.064 31.502 399.71 32.0713 399.14 32.51C398.571 32.9487 397.876 33.168 397.054 33.168ZM401.847 33V26.056H402.911L403.009 27.386C403.224 26.9287 403.55 26.5647 403.989 26.294C404.428 26.0233 404.969 25.888 405.613 25.888V27.12H405.291C404.88 27.12 404.502 27.1947 404.157 27.344C403.812 27.484 403.536 27.7267 403.331 28.072C403.126 28.4173 403.023 28.8933 403.023 29.5V33H401.847ZM407.647 24.516C407.413 24.516 407.217 24.4413 407.059 24.292C406.909 24.1333 406.835 23.9373 406.835 23.704C406.835 23.48 406.909 23.2933 407.059 23.144C407.217 22.9947 407.413 22.92 407.647 22.92C407.871 22.92 408.062 22.9947 408.221 23.144C408.379 23.2933 408.459 23.48 408.459 23.704C408.459 23.9373 408.379 24.1333 408.221 24.292C408.062 24.4413 407.871 24.516 407.647 24.516ZM407.059 33V26.056H408.235V33H407.059ZM413.992 33.168C413.423 33.168 412.914 33.0513 412.466 32.818C412.028 32.5847 411.692 32.258 411.458 31.838L411.346 33H410.282V22.92H411.458V27.204C411.682 26.868 412 26.5647 412.41 26.294C412.83 26.0233 413.362 25.888 414.006 25.888C414.697 25.888 415.299 26.0467 415.812 26.364C416.326 26.6813 416.722 27.1153 417.002 27.666C417.292 28.2167 417.436 28.842 417.436 29.542C417.436 30.242 417.292 30.8673 417.002 31.418C416.722 31.9593 416.321 32.3887 415.798 32.706C415.285 33.014 414.683 33.168 413.992 33.168ZM413.866 32.146C414.333 32.146 414.744 32.0387 415.098 31.824C415.453 31.6 415.733 31.292 415.938 30.9C416.144 30.508 416.246 30.0507 416.246 29.528C416.246 29.0053 416.144 28.548 415.938 28.156C415.733 27.764 415.453 27.4607 415.098 27.246C414.744 27.022 414.333 26.91 413.866 26.91C413.4 26.91 412.989 27.022 412.634 27.246C412.28 27.4607 412 27.764 411.794 28.156C411.589 28.548 411.486 29.0053 411.486 29.528C411.486 30.0507 411.589 30.508 411.794 30.9C412 31.292 412.28 31.6 412.634 31.824C412.989 32.0387 413.4 32.146 413.866 32.146ZM422.195 33.168C421.533 33.168 420.945 33.0187 420.431 32.72C419.918 32.412 419.512 31.9873 419.213 31.446C418.924 30.9047 418.779 30.2653 418.779 29.528C418.779 28.8 418.924 28.1653 419.213 27.624C419.503 27.0733 419.904 26.6487 420.417 26.35C420.94 26.042 421.542 25.888 422.223 25.888C422.895 25.888 423.474 26.042 423.959 26.35C424.454 26.6487 424.832 27.0453 425.093 27.54C425.355 28.0347 425.485 28.5667 425.485 29.136C425.485 29.2387 425.481 29.3413 425.471 29.444C425.471 29.5467 425.471 29.6633 425.471 29.794H419.941C419.969 30.326 420.091 30.7693 420.305 31.124C420.529 31.4693 420.805 31.7307 421.131 31.908C421.467 32.0853 421.822 32.174 422.195 32.174C422.681 32.174 423.087 32.062 423.413 31.838C423.74 31.614 423.978 31.3107 424.127 30.928H425.289C425.103 31.572 424.743 32.1087 424.211 32.538C423.689 32.958 423.017 33.168 422.195 33.168ZM422.195 26.882C421.635 26.882 421.136 27.0547 420.697 27.4C420.268 27.736 420.021 28.2307 419.955 28.884H424.323C424.295 28.2587 424.081 27.7687 423.679 27.414C423.278 27.0593 422.783 26.882 422.195 26.882Z" fill="#FEFEFE"/>
</svg>
