<svg width="96" height="47" viewBox="0 0 96 47" fill="none" xmlns="http://www.w3.org/2000/svg">
<g clip-path="url(#clip0_301_684)">
<path d="M8.00002 12.1735L3.29802 14.8055L4.34802 9.52016L0.391357 5.8615L5.74269 5.22683L8.00002 0.333496L10.2574 5.22683L15.6087 5.8615L11.652 9.52016L12.702 14.8055L8.00002 12.1735Z" fill="#F4C300"/>
</g>
<g clip-path="url(#clip1_301_684)">
<path d="M28 12.1735L23.298 14.8055L24.348 9.52016L20.3914 5.8615L25.7427 5.22683L28 0.333496L30.2574 5.22683L35.6087 5.8615L31.652 9.52016L32.702 14.8055L28 12.1735Z" fill="#F4C300"/>
</g>
<g clip-path="url(#clip2_301_684)">
<path d="M48 12.1735L43.298 14.8055L44.348 9.52016L40.3914 5.8615L45.7427 5.22683L48 0.333496L50.2574 5.22683L55.6087 5.8615L51.652 9.52016L52.702 14.8055L48 12.1735Z" fill="#F4C300"/>
</g>
<g clip-path="url(#clip3_301_684)">
<path d="M68 12.1735L63.298 14.8055L64.348 9.52016L60.3914 5.8615L65.7427 5.22683L68 0.333496L70.2574 5.22683L75.6087 5.8615L71.652 9.52016L72.702 14.8055L68 12.1735Z" fill="#F4C300"/>
</g>
<g clip-path="url(#clip4_301_684)">
<path d="M88 12.1735L83.298 14.8055L84.348 9.52016L80.3914 5.8615L85.7427 5.22683L88 0.333496L90.2574 5.22683L95.6087 5.8615L91.652 9.52016L92.702 14.8055L88 12.1735Z" fill="#F4C300"/>
</g>
<path d="M8.928 39.896C8.928 40.7387 8.624 41.448 8.016 42.024C7.41867 42.6 6.624 42.952 5.632 43.08V44.216C5.632 44.4293 5.568 44.6 5.44 44.728C5.32267 44.856 5.16267 44.92 4.96 44.92C4.75733 44.92 4.592 44.856 4.464 44.728C4.34667 44.6 4.288 44.4293 4.288 44.216V43.112C3.648 43.0587 3.02933 42.9307 2.432 42.728C1.84533 42.5147 1.344 42.2267 0.928 41.864C0.725333 41.7147 0.624 41.5013 0.624 41.224C0.624 41.032 0.672 40.872 0.768 40.744C0.874667 40.6053 1.00267 40.536 1.152 40.536C1.30133 40.536 1.48267 40.6053 1.696 40.744C2.72 41.4373 3.75467 41.784 4.8 41.784C5.58933 41.784 6.19733 41.624 6.624 41.304C7.06133 40.984 7.28 40.5307 7.28 39.944C7.28 39.592 7.16267 39.3093 6.928 39.096C6.704 38.872 6.416 38.696 6.064 38.568C5.72267 38.44 5.248 38.3013 4.64 38.152C3.84 37.9493 3.18933 37.7467 2.688 37.544C2.18667 37.3413 1.75467 37.0267 1.392 36.6C1.04 36.1733 0.864 35.608 0.864 34.904C0.864 34.04 1.17333 33.3093 1.792 32.712C2.42133 32.104 3.248 31.7413 4.272 31.624V30.504C4.272 30.2907 4.33067 30.12 4.448 29.992C4.576 29.864 4.74133 29.8 4.944 29.8C5.14667 29.8 5.30667 29.864 5.424 29.992C5.552 30.12 5.616 30.2907 5.616 30.504V31.624C6.16 31.6773 6.67733 31.8107 7.168 32.024C7.66933 32.2267 8.112 32.504 8.496 32.856C8.70933 33.0267 8.816 33.24 8.816 33.496C8.816 33.6773 8.76267 33.8373 8.656 33.976C8.54933 34.1147 8.42133 34.184 8.272 34.184C8.12267 34.184 7.94133 34.1147 7.728 33.976C7.26933 33.624 6.832 33.3627 6.416 33.192C6 33.0213 5.50933 32.936 4.944 32.936C4.208 32.936 3.62133 33.1067 3.184 33.448C2.74667 33.7893 2.528 34.2533 2.528 34.84C2.528 35.2347 2.65067 35.5547 2.896 35.8C3.14133 36.0453 3.44533 36.2373 3.808 36.376C4.17067 36.504 4.66667 36.6427 5.296 36.792C6.07467 36.984 6.704 37.1813 7.184 37.384C7.664 37.576 8.07467 37.8747 8.416 38.28C8.75733 38.6747 8.928 39.2133 8.928 39.896ZM14.9058 35.864C15.6098 35.864 16.2284 36.0133 16.7618 36.312C17.3058 36.6107 17.7271 37.032 18.0258 37.576C18.3244 38.12 18.4738 38.744 18.4738 39.448C18.4738 40.1627 18.3084 40.7973 17.9778 41.352C17.6471 41.9067 17.1831 42.3387 16.5858 42.648C15.9991 42.9573 15.3218 43.112 14.5538 43.112C13.8924 43.112 13.2418 43 12.6018 42.776C11.9724 42.552 11.4444 42.2427 11.0178 41.848C10.8044 41.6667 10.6978 41.4533 10.6978 41.208C10.6978 41.016 10.7511 40.856 10.8578 40.728C10.9644 40.5893 11.0924 40.52 11.2418 40.52C11.3378 40.52 11.4231 40.536 11.4978 40.568C11.5831 40.6 11.6791 40.6533 11.7858 40.728C12.2231 41.0693 12.6604 41.3307 13.0978 41.512C13.5458 41.6827 14.0151 41.768 14.5058 41.768C15.2524 41.768 15.8338 41.5707 16.2498 41.176C16.6658 40.7707 16.8738 40.2053 16.8738 39.48C16.8738 38.7867 16.6604 38.232 16.2338 37.816C15.8178 37.4 15.2578 37.192 14.5538 37.192C14.0951 37.192 13.6844 37.272 13.3218 37.432C12.9591 37.5813 12.6178 37.8213 12.2978 38.152C12.1378 38.3013 11.9458 38.376 11.7218 38.376C11.5404 38.376 11.3858 38.3227 11.2578 38.216C11.1404 38.0987 11.0818 37.9493 11.0818 37.768V32.504C11.0818 32.2587 11.1458 32.0667 11.2738 31.928C11.4124 31.7893 11.6098 31.72 11.8658 31.72H17.3698C17.6151 31.72 17.8071 31.7787 17.9458 31.896C18.0844 32.0133 18.1538 32.1733 18.1538 32.376C18.1538 32.5893 18.0844 32.7547 17.9458 32.872C17.8071 32.9893 17.6151 33.048 17.3698 33.048H12.7138V36.6C13.3004 36.1093 14.0311 35.864 14.9058 35.864ZM23.9875 43.128C22.6755 43.128 21.6728 42.6373 20.9795 41.656C20.2968 40.6747 19.9555 39.2453 19.9555 37.368C19.9555 35.48 20.2968 34.0453 20.9795 33.064C21.6728 32.0827 22.6755 31.592 23.9875 31.592C25.2995 31.592 26.2968 32.0827 26.9795 33.064C27.6728 34.0347 28.0195 35.464 28.0195 37.352C28.0195 39.24 27.6728 40.6747 26.9795 41.656C26.2968 42.6373 25.2995 43.128 23.9875 43.128ZM23.9875 41.8C24.8088 41.8 25.4115 41.4427 25.7955 40.728C26.1795 40.0133 26.3715 38.888 26.3715 37.352C26.3715 35.816 26.1795 34.696 25.7955 33.992C25.4115 33.2773 24.8088 32.92 23.9875 32.92C23.1662 32.92 22.5635 33.2773 22.1795 33.992C21.7955 34.696 21.6035 35.816 21.6035 37.352C21.6035 38.8773 21.7955 40.0027 22.1795 40.728C22.5635 41.4427 23.1662 41.8 23.9875 41.8ZM30.6853 43.08C30.3973 43.08 30.1519 42.984 29.9493 42.792C29.7573 42.6 29.6613 42.3547 29.6613 42.056C29.6613 41.7573 29.7573 41.512 29.9493 41.32C30.1519 41.1173 30.3973 41.016 30.6853 41.016C30.9733 41.016 31.2133 41.1173 31.4053 41.32C31.5973 41.512 31.6933 41.7573 31.6933 42.056C31.6933 42.3547 31.5973 42.6 31.4053 42.792C31.2133 42.984 30.9733 43.08 30.6853 43.08ZM37.3938 43.128C36.0818 43.128 35.0791 42.6373 34.3858 41.656C33.7031 40.6747 33.3618 39.2453 33.3618 37.368C33.3618 35.48 33.7031 34.0453 34.3858 33.064C35.0791 32.0827 36.0818 31.592 37.3938 31.592C38.7058 31.592 39.7031 32.0827 40.3858 33.064C41.0791 34.0347 41.4258 35.464 41.4258 37.352C41.4258 39.24 41.0791 40.6747 40.3858 41.656C39.7031 42.6373 38.7058 43.128 37.3938 43.128ZM37.3938 41.8C38.2151 41.8 38.8178 41.4427 39.2018 40.728C39.5858 40.0133 39.7778 38.888 39.7778 37.352C39.7778 35.816 39.5858 34.696 39.2018 33.992C38.8178 33.2773 38.2151 32.92 37.3938 32.92C36.5724 32.92 35.9698 33.2773 35.5858 33.992C35.2018 34.696 35.0098 35.816 35.0098 37.352C35.0098 38.8773 35.2018 40.0027 35.5858 40.728C35.9698 41.4427 36.5724 41.8 37.3938 41.8ZM46.9875 43.128C45.6755 43.128 44.6728 42.6373 43.9795 41.656C43.2968 40.6747 42.9555 39.2453 42.9555 37.368C42.9555 35.48 43.2968 34.0453 43.9795 33.064C44.6728 32.0827 45.6755 31.592 46.9875 31.592C48.2995 31.592 49.2968 32.0827 49.9795 33.064C50.6728 34.0347 51.0195 35.464 51.0195 37.352C51.0195 39.24 50.6728 40.6747 49.9795 41.656C49.2968 42.6373 48.2995 43.128 46.9875 43.128ZM46.9875 41.8C47.8088 41.8 48.4115 41.4427 48.7955 40.728C49.1795 40.0133 49.3715 38.888 49.3715 37.352C49.3715 35.816 49.1795 34.696 48.7955 33.992C48.4115 33.2773 47.8088 32.92 46.9875 32.92C46.1662 32.92 45.5635 33.2773 45.1795 33.992C44.7955 34.696 44.6035 35.816 44.6035 37.352C44.6035 38.8773 44.7955 40.0027 45.1795 40.728C45.5635 41.4427 46.1662 41.8 46.9875 41.8Z" fill="#1A1A1A"/>
<defs>
<clipPath id="clip0_301_684">
<rect width="16" height="16" fill="white"/>
</clipPath>
<clipPath id="clip1_301_684">
<rect width="16" height="16" fill="white" transform="translate(20)"/>
</clipPath>
<clipPath id="clip2_301_684">
<rect width="16" height="16" fill="white" transform="translate(40)"/>
</clipPath>
<clipPath id="clip3_301_684">
<rect width="16" height="16" fill="white" transform="translate(60)"/>
</clipPath>
<clipPath id="clip4_301_684">
<rect width="16" height="16" fill="white" transform="translate(80)"/>
</clipPath>
</defs>
</svg>
